nColumns=28
nRows=73
DataType=double
version=3
OpenSimVersion=4.1
endheader
time	ground_force_1_vx	ground_force_1_vy	ground_force_1_vz	ground_force_1_px	ground_force_1_py	ground_force_1_pz	ground_force_1_mx	ground_force_1_my	ground_force_1_mz	ground_force_2_vx	ground_force_2_vy	ground_force_2_vz	ground_force_2_px	ground_force_2_py	ground_force_2_pz	ground_force_2_mx	ground_force_2_my	ground_force_2_mz	ground_force_3_vx	ground_force_3_vy	ground_force_3_vz	ground_force_3_px	ground_force_3_py	ground_force_3_pz	ground_force_3_mx	ground_force_3_my	ground_force_3_mz
6.69	-1.81766	434.929	-15.7427	-0.279622	0.006	-0.425319	0	-1.58228	0	7.28476	200.914	18.8341	-0.244436	0.006	-0.752536	0	0.0233527	0	0	0	0	0	0	0	0	0	0
6.7	-1.91633	439.947	-15.9416	-0.279343	0.006	-0.425217	0	-1.55778	0	7.68058	201.354	18.6782	-0.244691	0.006	-0.75232	0	0.00609125	0	0	0	0	0	0	0	0	0	0
6.71	-1.85235	444.252	-15.9587	-0.27922	0.006	-0.425089	0	-1.52391	0	8.08615	201.79	18.4768	-0.245191	0.006	-0.752023	0	-0.0158287	0	0	0	0	0	0	0	0	0	0
6.72	-1.29049	446.619	-15.9363	-0.279338	0.006	-0.425038	0	-1.53656	0	8.60597	202.185	18.1451	-0.245667	0.006	-0.751709	0	-0.0275959	0	0	0	0	0	0	0	0	0	0
6.73	-0.644491	447.988	-16.0254	-0.279555	0.006	-0.424993	0	-1.53416	0	9.24119	202.633	17.7166	-0.246162	0.006	-0.751548	0	-0.0378342	0	0	0	0	0	0	0	0	0	0
6.74	-0.264917	450.169	-16.4073	-0.279614	0.006	-0.424748	0	-1.50838	0	10.0882	202.435	17.1663	-0.24649	0.006	-0.751452	0	-0.056462	0	0	0	0	0	0	0	0	0	0
6.75	0.120347	452.86	-16.917	-0.279566	0.006	-0.424522	0	-1.49385	0	10.9948	201.47	16.5577	-0.246537	0.006	-0.751226	0	-0.0726129	0	0	0	0	0	0	0	0	0	0
6.76	0.666227	455.423	-17.3783	-0.279614	0.006	-0.424368	0	-1.48738	0	11.6351	200.207	16.0978	-0.246588	0.006	-0.750796	0	-0.085735	0	0	0	0	0	0	0	0	0	0
6.77	0.96813	458.857	-17.7701	-0.27966	0.006	-0.424168	0	-1.50764	0	11.9818	199.05	15.7874	-0.246791	0.006	-0.750335	0	-0.0686259	0	0	0	0	0	0	0	0	0	0
6.78	0.68868	463.558	-18.205	-0.279464	0.006	-0.423999	0	-1.55589	0	12.0844	198.641	15.5636	-0.246612	0.006	-0.750016	0	-0.0492196	0	0	0	0	0	0	0	0	0	0
6.79	0.022036	467.842	-18.6672	-0.279246	0.006	-0.423942	0	-1.59906	0	12.0466	198.925	15.2855	-0.246333	0.006	-0.750108	0	-0.0660927	0	0	0	0	0	0	0	0	0	0
6.8	-0.157454	470.965	-19.2484	-0.279283	0.006	-0.423856	0	-1.63028	0	12.1118	199.237	14.9911	-0.246559	0.006	-0.750183	0	-0.0718525	0	0	0	0	0	0	0	0	0	0
6.81	0.970172	474.147	-19.6595	-0.279712	0.006	-0.423611	0	-1.64339	0	12.4477	199.28	14.7136	-0.247217	0.006	-0.749865	0	-0.0385807	0	0	0	0	0	0	0	0	0	0
6.82	3.05016	477.396	-19.9671	-0.280196	0.006	-0.423494	0	-1.66408	0	12.937	199.793	14.4329	-0.248534	0.006	-0.749734	0	-0.0009721	0	0	0	0	0	0	0	0	0	0
6.83	4.70553	479.283	-20.3361	-0.280595	0.006	-0.423508	0	-1.70167	0	13.4539	200.931	14.3206	-0.249587	0.006	-0.74975	0	0.0428344	0	0	0	0	0	0	0	0	0	0
6.84	5.45153	480.082	-20.6275	-0.280671	0.006	-0.423393	0	-1.74317	0	13.9893	202.306	14.5641	-0.250147	0.006	-0.749702	0	0.108824	0	0	0	0	0	0	0	0	0	0
6.85	5.23834	480.863	-20.7185	-0.280359	0.006	-0.423175	0	-1.76575	0	14.5008	204.189	15.0798	-0.250526	0.006	-0.750005	0	0.148518	0	0	0	0	0	0	0	0	0	0
6.86	4.56739	481.026	-20.691	-0.280017	0.006	-0.423032	0	-1.77985	0	14.9632	206.502	15.7147	-0.250691	0.006	-0.750497	0	0.164918	0	0	0	0	0	0	0	0	0	0
6.87	4.46709	480.272	-20.7066	-0.279985	0.006	-0.423069	0	-1.78421	0	15.3311	208.97	16.296	-0.250714	0.006	-0.750803	0	0.175017	0	0	0	0	0	0	0	0	0	0
6.88	5.21861	480.004	-21.0762	-0.280008	0.006	-0.42308	0	-1.82224	0	15.5242	211.572	16.8684	-0.250961	0.006	-0.751066	0	0.193374	0	0	0	0	0	0	0	0	0	0
6.89	6.00678	480.081	-21.5253	-0.279965	0.006	-0.423044	0	-1.8295	0	15.6117	214.217	17.2298	-0.250571	0.006	-0.751438	0	0.239515	0	0	0	0	0	0	0	0	0	0
6.9	5.93381	480.87	-22.0569	-0.279747	0.006	-0.422922	0	-1.79916	0	15.4824	216.665	17.4447	-0.250013	0.006	-0.751649	0	0.290682	0	0	0	0	0	0	0	0	0	0
6.91	5.14422	481.449	-22.3346	-0.279527	0.006	-0.422868	0	-1.74953	0	15.1229	219	17.8614	-0.249728	0.006	-0.751843	0	0.333697	0	0	0	0	0	0	0	0	0	0
6.92	4.85128	481.047	-22.3621	-0.27946	0.006	-0.422898	0	-1.6892	0	14.5865	221.159	18.4631	-0.249395	0.006	-0.752227	0	0.359829	0	0	0	0	0	0	0	0	0	0
6.93	5.33157	480.196	-22.423	-0.279474	0.006	-0.423007	0	-1.62578	0	14.16	223.106	19.0192	-0.249343	0.006	-0.752383	0	0.401804	0	0	0	0	0	0	0	0	0	0
6.94	5.82269	479.125	-22.4651	-0.279537	0.006	-0.423143	0	-1.54254	0	13.9667	225.384	19.4853	-0.249034	0.006	-0.752571	0	0.459672	0	0	0	0	0	0	0	0	0	0
6.95	5.87569	478.443	-22.4892	-0.27955	0.006	-0.423282	0	-1.45396	0	13.8485	227.893	20.1823	-0.248186	0.006	-0.752927	0	0.527407	0	0	0	0	0	0	0	0	0	0
6.96	5.37189	477.987	-22.4967	-0.279334	0.006	-0.423455	0	-1.3662	0	13.7174	230.369	21.2156	-0.247469	0.006	-0.753474	0	0.596369	0	0	0	0	0	0	0	0	0	0
6.97	4.43615	476.979	-22.4325	-0.279046	0.006	-0.423609	0	-1.2672	0	13.4642	232.579	22.3599	-0.24695	0.006	-0.754128	0	0.624149	0	0	0	0	0	0	0	0	0	0
6.98	3.44567	475.574	-22.466	-0.278759	0.006	-0.423691	0	-1.17281	0	13.0124	234.165	23.5381	-0.246315	0.006	-0.754606	0	0.674669	0	0	0	0	0	0	0	0	0	0
6.99	2.73073	473.798	-22.5426	-0.278553	0.006	-0.423823	0	-1.06307	0	12.393	235.216	24.5958	-0.24555	0.006	-0.754981	0	0.718166	0	0	0	0	0	0	0	0	0	0
7	2.37673	471.499	-22.6587	-0.278347	0.006	-0.424016	0	-0.941872	0	11.7644	235.758	25.3804	-0.244551	0.006	-0.755543	0	0.748435	0	0	0	0	0	0	0	0	0	0
7.01	2.11354	468.572	-22.7987	-0.278032	0.006	-0.424091	0	-0.80564	0	11.0523	236.007	25.9313	-0.243347	0.006	-0.756222	0	0.78167	0	0	0	0	0	0	0	0	0	0
7.02	1.57231	465.591	-22.9642	-0.277589	0.006	-0.424082	0	-0.657697	0	10.2317	236.254	26.4817	-0.241904	0.006	-0.756696	0	0.817486	0	0	0	0	0	0	0	0	0	0
7.03	0.659357	462.62	-23.0683	-0.276956	0.006	-0.424111	0	-0.530992	0	9.57653	236.732	27.1674	-0.240168	0.006	-0.757255	0	0.827178	0	0	0	0	0	0	0	0	0	0
7.04	-0.524061	458.858	-23.1022	-0.276231	0.006	-0.424145	0	-0.423469	0	9.25304	237.213	28.1219	-0.238231	0.006	-0.758043	0	0.868186	0	0	0	0	0	0	0	0	0	0
7.05	-1.7866	454.435	-23.2329	-0.275478	0.006	-0.424161	0	-0.332211	0	8.62326	237.319	29.2711	-0.235624	0.006	-0.759122	0	0.936588	0	0	0	0	0	0	0	0	0	0
7.06	-2.9609	450.703	-23.3431	-0.274767	0.006	-0.424201	0	-0.272796	0	7.0617	236.53	30.3281	-0.23231	0.006	-0.760418	0	0.971695	0	0	0	0	0	0	0	0	0	0
7.07	-4.03712	448.063	-23.2887	-0.274143	0.006	-0.424182	0	-0.218104	0	5.21992	234.828	31.107	-0.228441	0.006	-0.761788	0	0.943694	0	0	0	0	0	0	0	0	0	0
7.08	-4.80189	445.144	-22.8003	-0.273636	0.006	-0.424158	0	-0.147	0	3.5471	232.502	31.7592	-0.224523	0.006	-0.763079	0	0.896307	0	0	0	0	0	0	0	0	0	0
7.09	-4.73511	442.342	-22.3015	-0.273208	0.006	-0.424047	0	-0.134751	0	2.11964	229.633	32.4956	-0.220838	0.006	-0.764319	0	0.854058	0	0	0	0	0	0	0	0	0	0
7.1	-4.21506	440.198	-22.2747	-0.272882	0.006	-0.423942	0	-0.173618	0	1.40072	227	33.3449	-0.21762	0.006	-0.765528	0	0.807878	0	0	0	0	0	0	0	0	0	0
7.11	-3.57745	438.397	-22.8129	-0.272597	0.006	-0.423866	0	-0.224507	0	1.63235	225.01	34.1398	-0.214992	0.006	-0.766464	0	0.800955	0	0	0	0	0	0	0	0	0	0
7.12	-2.75541	436.322	-23.7718	-0.272304	0.006	-0.423712	0	-0.279633	0	2.52856	223.637	34.4929	-0.212823	0.006	-0.767366	0	0.839756	0	0	0	0	0	0	0	0	0	0
7.13	-1.70846	434.677	-24.9925	-0.271928	0.006	-0.423321	0	-0.362666	0	3.32495	222.326	34.5331	-0.210172	0.006	-0.768322	0	0.8232	0	0	0	0	0	0	0	0	0	0
7.14	-0.818611	434.062	-25.9489	-0.271625	0.006	-0.422909	0	-0.443348	0	3.29888	219.591	34.4296	-0.207191	0.006	-0.769023	0	0.761397	0	0	0	0	0	0	0	0	0	0
7.15	-0.253787	433.473	-26.5325	-0.271403	0.006	-0.422626	0	-0.530476	0	2.67869	215.334	33.8953	-0.204396	0.006	-0.769778	0	0.705714	0	0	0	0	0	0	0	0	0	0
7.16	0.219281	431.317	-27.0663	-0.271315	0.006	-0.422418	0	-0.629421	0	1.91629	210.117	32.9927	-0.201426	0.006	-0.770359	0	0.647337	0	0	0	0	0	0	0	0	0	0
7.17	0.84528	427.725	-27.5073	-0.271304	0.006	-0.422256	0	-0.705912	0	1.26114	204.879	32.1612	-0.198342	0.006	-0.770783	0	0.575136	0	0	0	0	0	0	0	0	0	0
7.18	1.86524	424.069	-27.9193	-0.271243	0.006	-0.421976	0	-0.738511	0	0.751814	200.025	31.7335	-0.195369	0.006	-0.771099	0	0.489471	0	0	0	0	0	0	0	0	0	0
7.19	3.57453	419.873	-28.1925	-0.271238	0.006	-0.421651	0	-0.751577	0	0.508118	195.98	31.5601	-0.192504	0.006	-0.771471	0	0.397152	0	0	0	0	0	0	0	0	0	0
7.2	5.75784	414.612	-28.0559	-0.271444	0.006	-0.421403	0	-0.79922	0	0.509122	192.659	31.1915	-0.189515	0.006	-0.772128	0	0.289505	0	0	0	0	0	0	0	0	0	0
7.21	8.03498	408.839	-27.6453	-0.271623	0.006	-0.421343	0	-0.854789	0	0.370055	189.108	30.5308	-0.186345	0.006	-0.772597	0	0.208715	0	0	0	0	0	0	0	0	0	0
7.22	9.65275	403.522	-27.1707	-0.271605	0.006	-0.421258	0	-0.883776	0	0.0161006	184.355	29.7519	-0.18317	0.006	-0.772815	0	0.174394	0	0	0	0	0	0	0	0	0	0
7.23	10.2944	398.312	-26.8073	-0.27144	0.006	-0.421158	0	-0.924601	0	-0.713078	178.53	28.9388	-0.180123	0.006	-0.772847	0	0.192551	0	0	0	0	0	0	0	0	0	0
7.24	10.4372	393.505	-26.5003	-0.270977	0.006	-0.421056	0	-0.979293	0	-1.82915	172.487	28.1822	-0.177184	0.006	-0.773151	0	0.209049	0	0	0	0	0	0	0	0	0	0
7.25	9.74335	388.81	-26.2333	-0.27017	0.006	-0.420939	0	-0.990232	0	-2.8114	166.494	27.6754	-0.174023	0.006	-0.773454	0	0.160113	0	0	0	0	0	0	0	0	0	0
7.26	8.02189	383.441	-26.2082	-0.269084	0.006	-0.420722	0	-1.00179	0	-3.31614	160.738	27.3396	-0.170418	0.006	-0.773753	0	0.109517	0	0	0	0	0	0	0	0	0	0
7.27	6.56604	377.039	-26.3879	-0.268223	0.006	-0.420531	0	-1.06708	0	-3.52884	155.838	27.1403	-0.166854	0.006	-0.774132	0	0.0682483	0	0	0	0	0	0	0	0	0	0
7.28	6.45027	370.639	-26.7108	-0.267533	0.006	-0.420289	0	-1.13575	0	-3.62569	151.205	26.9078	-0.163641	0.006	-0.774357	0	0.0477111	0	0	0	0	0	0	0	0	0	0
7.29	6.93941	364.206	-27.0208	-0.266586	0.006	-0.419909	0	-1.13587	0	-3.9196	146.238	26.5473	-0.160629	0.006	-0.774414	0	0.0584314	0	0	0	0	0	0	0	0	0	0
7.3	7.25749	356.587	-27.2051	-0.265207	0.006	-0.419361	0	-1.09147	0	-4.74706	141.473	26.0568	-0.157773	0.006	-0.774246	0	0.0494887	0	0	0	0	0	0	0	0	0	0
7.31	6.98278	349.02	-27.378	-0.263158	0.006	-0.418578	0	-1.05292	0	-5.99238	137.353	25.603	-0.154739	0.006	-0.774044	0	0.071545	0	0	0	0	0	0	0	0	0	0
7.32	5.46779	341.583	-27.4802	-0.260601	0.006	-0.41789	0	-1.01307	0	-7.07478	134.19	25.1674	-0.151951	0.006	-0.773916	0	0.148491	0	0	0	0	0	0	0	0	0	0
7.33	2.64739	333.012	-27.3598	-0.257669	0.006	-0.417409	0	-0.931364	0	-7.79821	131.6	24.8059	-0.149858	0.006	-0.773546	0	0.192457	0	0	0	0	0	0	0	0	0	0
7.34	-0.63817	324.327	-26.9962	-0.254556	0.006	-0.417101	0	-0.851399	0	-8.18907	129.408	24.7669	-0.147602	0.006	-0.773303	0	0.17716	0	0	0	0	0	0	0	0	0	0
7.35	-3.34044	316.915	-26.1198	-0.25174	0.006	-0.416893	0	-0.741414	0	-8.22118	127.364	24.7994	-0.1451	0.006	-0.773223	0	0.137111	0	0	0	0	0	0	0	0	0	0
7.36	-4.9195	312.953	-25.2355	-0.249152	0.006	-0.416582	0	-0.608231	0	-7.97829	125.235	24.7082	-0.142938	0.006	-0.773043	0	0.115946	0	0	0	0	0	0	0	0	0	0
7.37	-5.95774	312.213	-24.6443	-0.246525	0.006	-0.416031	0	-0.498907	0	-7.80965	123.08	24.4207	-0.141501	0.006	-0.772526	0	0.123122	0	0	0	0	0	0	0	0	0	0
7.38	-6.91037	312.637	-24.2962	-0.243771	0.006	-0.415589	0	-0.398766	0	-7.8249	120.939	23.919	-0.139795	0.006	-0.772081	0	0.130518	0	0	0	0	0	0	0	0	0	0
7.39	-7.65006	312.755	-24.2007	-0.241071	0.006	-0.415052	0	-0.279219	0	-8.23519	119.14	23.2716	-0.137855	0.006	-0.771661	0	0.131826	0	0	0	0	0	0	0	0	0	0
7.4	-7.68114	312.121	-24.2946	-0.238545	0.006	-0.414396	0	-0.196568	0	-9.30321	118.053	22.6879	-0.136472	0.006	-0.771447	0	0.131756	0	0	0	0	0	0	0	0	0	0
7.41	-6.95071	311.581	-24.4768	-0.236144	0.006	-0.413675	0	-0.162481	0	-10.5414	117.338	22.0969	-0.134802	0.006	-0.771037	0	0.0963031	0	0	0	0	0	0	0	0	0	0
